<mxfile host="app.diagrams.net" modified="2023-10-20T15:38:30.501Z" agent="Mozilla/5.0 (Windows NT 10.0; Win64; x64) AppleWebKit/537.36 (KHTML, like Gecko) Chrome/118.0.0.0 Safari/537.36" etag="JN1BN93Puwc5-P211JdU" version="22.0.6" type="github">
  <diagram name="PÃ gina-1" id="X74-kyora85guJsJdugu">
    <mxGraphModel dx="5135" dy="2076" grid="0" gridSize="10" guides="1" tooltips="1" connect="1" arrows="1" fold="1" page="1" pageScale="1" pageWidth="827" pageHeight="1169" math="0" shadow="0">
      <root>
        <mxCell id="0" />
        <mxCell id="1" parent="0" />
        <mxCell id="vQvhf7Cgw6uRfwSYzuYJ-1" value="Asignatura" style="swimlane;fontStyle=0;childLayout=stackLayout;horizontal=1;startSize=26;horizontalStack=0;resizeParent=1;resizeParentMax=0;resizeLast=0;collapsible=1;marginBottom=0;align=center;fontSize=14;" parent="1" vertex="1">
          <mxGeometry x="-487" y="613" width="160" height="206" as="geometry" />
        </mxCell>
        <mxCell id="vQvhf7Cgw6uRfwSYzuYJ-17" value="" style="shape=table;startSize=0;container=1;collapsible=1;childLayout=tableLayout;fixedRows=1;rowLines=0;fontStyle=0;align=center;resizeLast=1;strokeColor=none;fillColor=none;collapsible=0;" parent="vQvhf7Cgw6uRfwSYzuYJ-1" vertex="1">
          <mxGeometry y="26" width="160" height="30" as="geometry" />
        </mxCell>
        <mxCell id="vQvhf7Cgw6uRfwSYzuYJ-18" value="" style="shape=tableRow;horizontal=0;startSize=0;swimlaneHead=0;swimlaneBody=0;fillColor=none;collapsible=0;dropTarget=0;points=[[0,0.5],[1,0.5]];portConstraint=eastwest;top=0;left=0;right=0;bottom=1;" parent="vQvhf7Cgw6uRfwSYzuYJ-17" vertex="1">
          <mxGeometry width="160" height="30" as="geometry" />
        </mxCell>
        <mxCell id="vQvhf7Cgw6uRfwSYzuYJ-19" value="PK" style="shape=partialRectangle;connectable=0;fillColor=none;top=0;left=0;bottom=0;right=0;fontStyle=1;overflow=hidden;whiteSpace=wrap;html=1;" parent="vQvhf7Cgw6uRfwSYzuYJ-18" vertex="1">
          <mxGeometry width="30" height="30" as="geometry">
            <mxRectangle width="30" height="30" as="alternateBounds" />
          </mxGeometry>
        </mxCell>
        <mxCell id="vQvhf7Cgw6uRfwSYzuYJ-20" value="id_asignatura" style="shape=partialRectangle;connectable=0;fillColor=none;top=0;left=0;bottom=0;right=0;align=left;spacingLeft=6;fontStyle=5;overflow=hidden;whiteSpace=wrap;html=1;" parent="vQvhf7Cgw6uRfwSYzuYJ-18" vertex="1">
          <mxGeometry x="30" width="130" height="30" as="geometry">
            <mxRectangle width="130" height="30" as="alternateBounds" />
          </mxGeometry>
        </mxCell>
        <mxCell id="vQvhf7Cgw6uRfwSYzuYJ-2" value="nombre" style="text;strokeColor=none;fillColor=none;spacingLeft=4;spacingRight=4;overflow=hidden;rotatable=0;points=[[0,0.5],[1,0.5]];portConstraint=eastwest;fontSize=12;whiteSpace=wrap;html=1;" parent="vQvhf7Cgw6uRfwSYzuYJ-1" vertex="1">
          <mxGeometry y="56" width="160" height="30" as="geometry" />
        </mxCell>
        <mxCell id="vQvhf7Cgw6uRfwSYzuYJ-98" value="requisitos_matricula" style="text;strokeColor=none;fillColor=none;spacingLeft=4;spacingRight=4;overflow=hidden;rotatable=0;points=[[0,0.5],[1,0.5]];portConstraint=eastwest;fontSize=12;whiteSpace=wrap;html=1;" parent="vQvhf7Cgw6uRfwSYzuYJ-1" vertex="1">
          <mxGeometry y="86" width="160" height="30" as="geometry" />
        </mxCell>
        <mxCell id="vQvhf7Cgw6uRfwSYzuYJ-4" value="id_europeo" style="text;strokeColor=none;fillColor=none;spacingLeft=4;spacingRight=4;overflow=hidden;rotatable=0;points=[[0,0.5],[1,0.5]];portConstraint=eastwest;fontSize=12;whiteSpace=wrap;html=1;" parent="vQvhf7Cgw6uRfwSYzuYJ-1" vertex="1">
          <mxGeometry y="116" width="160" height="30" as="geometry" />
        </mxCell>
        <mxCell id="vQvhf7Cgw6uRfwSYzuYJ-99" value="fecha_inicio" style="text;strokeColor=none;fillColor=none;spacingLeft=4;spacingRight=4;overflow=hidden;rotatable=0;points=[[0,0.5],[1,0.5]];portConstraint=eastwest;fontSize=12;whiteSpace=wrap;html=1;" parent="vQvhf7Cgw6uRfwSYzuYJ-1" vertex="1">
          <mxGeometry y="146" width="160" height="30" as="geometry" />
        </mxCell>
        <mxCell id="vQvhf7Cgw6uRfwSYzuYJ-100" value="fecha_fin" style="text;strokeColor=none;fillColor=none;spacingLeft=4;spacingRight=4;overflow=hidden;rotatable=0;points=[[0,0.5],[1,0.5]];portConstraint=eastwest;fontSize=12;whiteSpace=wrap;html=1;" parent="vQvhf7Cgw6uRfwSYzuYJ-1" vertex="1">
          <mxGeometry y="176" width="160" height="30" as="geometry" />
        </mxCell>
        <mxCell id="vQvhf7Cgw6uRfwSYzuYJ-5" value="Aula" style="swimlane;fontStyle=0;childLayout=stackLayout;horizontal=1;startSize=26;horizontalStack=0;resizeParent=1;resizeParentMax=0;resizeLast=0;collapsible=1;marginBottom=0;align=center;fontSize=14;" parent="1" vertex="1">
          <mxGeometry x="-487" y="981" width="160" height="146" as="geometry" />
        </mxCell>
        <mxCell id="vQvhf7Cgw6uRfwSYzuYJ-21" value="" style="shape=table;startSize=0;container=1;collapsible=1;childLayout=tableLayout;fixedRows=1;rowLines=0;fontStyle=0;align=center;resizeLast=1;strokeColor=none;fillColor=none;collapsible=0;" parent="vQvhf7Cgw6uRfwSYzuYJ-5" vertex="1">
          <mxGeometry y="26" width="160" height="30" as="geometry" />
        </mxCell>
        <mxCell id="vQvhf7Cgw6uRfwSYzuYJ-22" value="" style="shape=tableRow;horizontal=0;startSize=0;swimlaneHead=0;swimlaneBody=0;fillColor=none;collapsible=0;dropTarget=0;points=[[0,0.5],[1,0.5]];portConstraint=eastwest;top=0;left=0;right=0;bottom=1;" parent="vQvhf7Cgw6uRfwSYzuYJ-21" vertex="1">
          <mxGeometry width="160" height="30" as="geometry" />
        </mxCell>
        <mxCell id="vQvhf7Cgw6uRfwSYzuYJ-23" value="PK" style="shape=partialRectangle;connectable=0;fillColor=none;top=0;left=0;bottom=0;right=0;fontStyle=1;overflow=hidden;whiteSpace=wrap;html=1;" parent="vQvhf7Cgw6uRfwSYzuYJ-22" vertex="1">
          <mxGeometry width="30" height="30" as="geometry">
            <mxRectangle width="30" height="30" as="alternateBounds" />
          </mxGeometry>
        </mxCell>
        <mxCell id="vQvhf7Cgw6uRfwSYzuYJ-24" value="id_aula" style="shape=partialRectangle;connectable=0;fillColor=none;top=0;left=0;bottom=0;right=0;align=left;spacingLeft=6;fontStyle=5;overflow=hidden;whiteSpace=wrap;html=1;" parent="vQvhf7Cgw6uRfwSYzuYJ-22" vertex="1">
          <mxGeometry x="30" width="130" height="30" as="geometry">
            <mxRectangle width="130" height="30" as="alternateBounds" />
          </mxGeometry>
        </mxCell>
        <mxCell id="vQvhf7Cgw6uRfwSYzuYJ-6" value="hora" style="text;strokeColor=none;fillColor=none;spacingLeft=4;spacingRight=4;overflow=hidden;rotatable=0;points=[[0,0.5],[1,0.5]];portConstraint=eastwest;fontSize=12;whiteSpace=wrap;html=1;" parent="vQvhf7Cgw6uRfwSYzuYJ-5" vertex="1">
          <mxGeometry y="56" width="160" height="30" as="geometry" />
        </mxCell>
        <mxCell id="vQvhf7Cgw6uRfwSYzuYJ-7" value="dia_setmana" style="text;strokeColor=none;fillColor=none;spacingLeft=4;spacingRight=4;overflow=hidden;rotatable=0;points=[[0,0.5],[1,0.5]];portConstraint=eastwest;fontSize=12;whiteSpace=wrap;html=1;" parent="vQvhf7Cgw6uRfwSYzuYJ-5" vertex="1">
          <mxGeometry y="86" width="160" height="30" as="geometry" />
        </mxCell>
        <mxCell id="vQvhf7Cgw6uRfwSYzuYJ-96" value="metros" style="text;strokeColor=none;fillColor=none;spacingLeft=4;spacingRight=4;overflow=hidden;rotatable=0;points=[[0,0.5],[1,0.5]];portConstraint=eastwest;fontSize=12;whiteSpace=wrap;html=1;" parent="vQvhf7Cgw6uRfwSYzuYJ-5" vertex="1">
          <mxGeometry y="116" width="160" height="30" as="geometry" />
        </mxCell>
        <mxCell id="vQvhf7Cgw6uRfwSYzuYJ-9" value="Ciclo" style="swimlane;fontStyle=0;childLayout=stackLayout;horizontal=1;startSize=26;horizontalStack=0;resizeParent=1;resizeParentMax=0;resizeLast=0;collapsible=1;marginBottom=0;align=center;fontSize=14;" parent="1" vertex="1">
          <mxGeometry x="-487" y="313" width="160" height="116" as="geometry" />
        </mxCell>
        <mxCell id="vQvhf7Cgw6uRfwSYzuYJ-25" value="" style="shape=table;startSize=0;container=1;collapsible=1;childLayout=tableLayout;fixedRows=1;rowLines=0;fontStyle=0;align=center;resizeLast=1;strokeColor=none;fillColor=none;collapsible=0;" parent="vQvhf7Cgw6uRfwSYzuYJ-9" vertex="1">
          <mxGeometry y="26" width="160" height="30" as="geometry" />
        </mxCell>
        <mxCell id="vQvhf7Cgw6uRfwSYzuYJ-26" value="" style="shape=tableRow;horizontal=0;startSize=0;swimlaneHead=0;swimlaneBody=0;fillColor=none;collapsible=0;dropTarget=0;points=[[0,0.5],[1,0.5]];portConstraint=eastwest;top=0;left=0;right=0;bottom=1;" parent="vQvhf7Cgw6uRfwSYzuYJ-25" vertex="1">
          <mxGeometry width="160" height="30" as="geometry" />
        </mxCell>
        <mxCell id="vQvhf7Cgw6uRfwSYzuYJ-27" value="PK" style="shape=partialRectangle;connectable=0;fillColor=none;top=0;left=0;bottom=0;right=0;fontStyle=1;overflow=hidden;whiteSpace=wrap;html=1;" parent="vQvhf7Cgw6uRfwSYzuYJ-26" vertex="1">
          <mxGeometry width="30" height="30" as="geometry">
            <mxRectangle width="30" height="30" as="alternateBounds" />
          </mxGeometry>
        </mxCell>
        <mxCell id="vQvhf7Cgw6uRfwSYzuYJ-28" value="id_ciclo" style="shape=partialRectangle;connectable=0;fillColor=none;top=0;left=0;bottom=0;right=0;align=left;spacingLeft=6;fontStyle=5;overflow=hidden;whiteSpace=wrap;html=1;" parent="vQvhf7Cgw6uRfwSYzuYJ-26" vertex="1">
          <mxGeometry x="30" width="130" height="30" as="geometry">
            <mxRectangle width="130" height="30" as="alternateBounds" />
          </mxGeometry>
        </mxCell>
        <mxCell id="vQvhf7Cgw6uRfwSYzuYJ-10" value="nombre" style="text;strokeColor=none;fillColor=none;spacingLeft=4;spacingRight=4;overflow=hidden;rotatable=0;points=[[0,0.5],[1,0.5]];portConstraint=eastwest;fontSize=12;whiteSpace=wrap;html=1;" parent="vQvhf7Cgw6uRfwSYzuYJ-9" vertex="1">
          <mxGeometry y="56" width="160" height="30" as="geometry" />
        </mxCell>
        <mxCell id="vQvhf7Cgw6uRfwSYzuYJ-11" value="grado" style="text;strokeColor=none;fillColor=none;spacingLeft=4;spacingRight=4;overflow=hidden;rotatable=0;points=[[0,0.5],[1,0.5]];portConstraint=eastwest;fontSize=12;whiteSpace=wrap;html=1;" parent="vQvhf7Cgw6uRfwSYzuYJ-9" vertex="1">
          <mxGeometry y="86" width="160" height="30" as="geometry" />
        </mxCell>
        <mxCell id="vQvhf7Cgw6uRfwSYzuYJ-13" value="Centro" style="swimlane;fontStyle=0;childLayout=stackLayout;horizontal=1;startSize=26;horizontalStack=0;resizeParent=1;resizeParentMax=0;resizeLast=0;collapsible=1;marginBottom=0;align=center;fontSize=14;" parent="1" vertex="1">
          <mxGeometry x="-487" y="23" width="160" height="116" as="geometry" />
        </mxCell>
        <mxCell id="vQvhf7Cgw6uRfwSYzuYJ-29" value="" style="shape=table;startSize=0;container=1;collapsible=1;childLayout=tableLayout;fixedRows=1;rowLines=0;fontStyle=0;align=center;resizeLast=1;strokeColor=none;fillColor=none;collapsible=0;" parent="vQvhf7Cgw6uRfwSYzuYJ-13" vertex="1">
          <mxGeometry y="26" width="160" height="30" as="geometry" />
        </mxCell>
        <mxCell id="vQvhf7Cgw6uRfwSYzuYJ-30" value="" style="shape=tableRow;horizontal=0;startSize=0;swimlaneHead=0;swimlaneBody=0;fillColor=none;collapsible=0;dropTarget=0;points=[[0,0.5],[1,0.5]];portConstraint=eastwest;top=0;left=0;right=0;bottom=1;" parent="vQvhf7Cgw6uRfwSYzuYJ-29" vertex="1">
          <mxGeometry width="160" height="30" as="geometry" />
        </mxCell>
        <mxCell id="vQvhf7Cgw6uRfwSYzuYJ-31" value="PK" style="shape=partialRectangle;connectable=0;fillColor=none;top=0;left=0;bottom=0;right=0;fontStyle=1;overflow=hidden;whiteSpace=wrap;html=1;" parent="vQvhf7Cgw6uRfwSYzuYJ-30" vertex="1">
          <mxGeometry width="30" height="30" as="geometry">
            <mxRectangle width="30" height="30" as="alternateBounds" />
          </mxGeometry>
        </mxCell>
        <mxCell id="vQvhf7Cgw6uRfwSYzuYJ-32" value="id_centro" style="shape=partialRectangle;connectable=0;fillColor=none;top=0;left=0;bottom=0;right=0;align=left;spacingLeft=6;fontStyle=5;overflow=hidden;whiteSpace=wrap;html=1;" parent="vQvhf7Cgw6uRfwSYzuYJ-30" vertex="1">
          <mxGeometry x="30" width="130" height="30" as="geometry">
            <mxRectangle width="130" height="30" as="alternateBounds" />
          </mxGeometry>
        </mxCell>
        <mxCell id="vQvhf7Cgw6uRfwSYzuYJ-14" value="nombre" style="text;strokeColor=none;fillColor=none;spacingLeft=4;spacingRight=4;overflow=hidden;rotatable=0;points=[[0,0.5],[1,0.5]];portConstraint=eastwest;fontSize=12;whiteSpace=wrap;html=1;" parent="vQvhf7Cgw6uRfwSYzuYJ-13" vertex="1">
          <mxGeometry y="56" width="160" height="30" as="geometry" />
        </mxCell>
        <mxCell id="vQvhf7Cgw6uRfwSYzuYJ-15" value="grado" style="text;strokeColor=none;fillColor=none;spacingLeft=4;spacingRight=4;overflow=hidden;rotatable=0;points=[[0,0.5],[1,0.5]];portConstraint=eastwest;fontSize=12;whiteSpace=wrap;html=1;" parent="vQvhf7Cgw6uRfwSYzuYJ-13" vertex="1">
          <mxGeometry y="86" width="160" height="30" as="geometry" />
        </mxCell>
        <mxCell id="vQvhf7Cgw6uRfwSYzuYJ-33" value="Profesor" style="swimlane;fontStyle=0;childLayout=stackLayout;horizontal=1;startSize=26;horizontalStack=0;resizeParent=1;resizeParentMax=0;resizeLast=0;collapsible=1;marginBottom=0;align=center;fontSize=14;" parent="1" vertex="1">
          <mxGeometry x="-73" y="536" width="160" height="266" as="geometry" />
        </mxCell>
        <mxCell id="vQvhf7Cgw6uRfwSYzuYJ-34" value="" style="shape=table;startSize=0;container=1;collapsible=1;childLayout=tableLayout;fixedRows=1;rowLines=0;fontStyle=0;align=center;resizeLast=1;strokeColor=none;fillColor=none;collapsible=0;" parent="vQvhf7Cgw6uRfwSYzuYJ-33" vertex="1">
          <mxGeometry y="26" width="160" height="30" as="geometry" />
        </mxCell>
        <mxCell id="vQvhf7Cgw6uRfwSYzuYJ-35" value="" style="shape=tableRow;horizontal=0;startSize=0;swimlaneHead=0;swimlaneBody=0;fillColor=none;collapsible=0;dropTarget=0;points=[[0,0.5],[1,0.5]];portConstraint=eastwest;top=0;left=0;right=0;bottom=1;" parent="vQvhf7Cgw6uRfwSYzuYJ-34" vertex="1">
          <mxGeometry width="160" height="30" as="geometry" />
        </mxCell>
        <mxCell id="vQvhf7Cgw6uRfwSYzuYJ-36" value="PK" style="shape=partialRectangle;connectable=0;fillColor=none;top=0;left=0;bottom=0;right=0;fontStyle=1;overflow=hidden;whiteSpace=wrap;html=1;" parent="vQvhf7Cgw6uRfwSYzuYJ-35" vertex="1">
          <mxGeometry width="30" height="30" as="geometry">
            <mxRectangle width="30" height="30" as="alternateBounds" />
          </mxGeometry>
        </mxCell>
        <mxCell id="vQvhf7Cgw6uRfwSYzuYJ-37" value="id_profesor" style="shape=partialRectangle;connectable=0;fillColor=none;top=0;left=0;bottom=0;right=0;align=left;spacingLeft=6;fontStyle=5;overflow=hidden;whiteSpace=wrap;html=1;" parent="vQvhf7Cgw6uRfwSYzuYJ-35" vertex="1">
          <mxGeometry x="30" width="130" height="30" as="geometry">
            <mxRectangle width="130" height="30" as="alternateBounds" />
          </mxGeometry>
        </mxCell>
        <mxCell id="vQvhf7Cgw6uRfwSYzuYJ-49" value="nombre" style="text;strokeColor=none;fillColor=none;spacingLeft=4;spacingRight=4;overflow=hidden;rotatable=0;points=[[0,0.5],[1,0.5]];portConstraint=eastwest;fontSize=12;whiteSpace=wrap;html=1;" parent="vQvhf7Cgw6uRfwSYzuYJ-33" vertex="1">
          <mxGeometry y="56" width="160" height="30" as="geometry" />
        </mxCell>
        <mxCell id="vQvhf7Cgw6uRfwSYzuYJ-51" value="mail" style="text;strokeColor=none;fillColor=none;spacingLeft=4;spacingRight=4;overflow=hidden;rotatable=0;points=[[0,0.5],[1,0.5]];portConstraint=eastwest;fontSize=12;whiteSpace=wrap;html=1;" parent="vQvhf7Cgw6uRfwSYzuYJ-33" vertex="1">
          <mxGeometry y="86" width="160" height="30" as="geometry" />
        </mxCell>
        <mxCell id="vQvhf7Cgw6uRfwSYzuYJ-38" value="direccion" style="text;strokeColor=none;fillColor=none;spacingLeft=4;spacingRight=4;overflow=hidden;rotatable=0;points=[[0,0.5],[1,0.5]];portConstraint=eastwest;fontSize=12;whiteSpace=wrap;html=1;" parent="vQvhf7Cgw6uRfwSYzuYJ-33" vertex="1">
          <mxGeometry y="116" width="160" height="30" as="geometry" />
        </mxCell>
        <mxCell id="vQvhf7Cgw6uRfwSYzuYJ-50" value="telefono" style="text;strokeColor=none;fillColor=none;spacingLeft=4;spacingRight=4;overflow=hidden;rotatable=0;points=[[0,0.5],[1,0.5]];portConstraint=eastwest;fontSize=12;whiteSpace=wrap;html=1;" parent="vQvhf7Cgw6uRfwSYzuYJ-33" vertex="1">
          <mxGeometry y="146" width="160" height="30" as="geometry" />
        </mxCell>
        <mxCell id="vQvhf7Cgw6uRfwSYzuYJ-52" value="DNI" style="text;strokeColor=none;fillColor=none;spacingLeft=4;spacingRight=4;overflow=hidden;rotatable=0;points=[[0,0.5],[1,0.5]];portConstraint=eastwest;fontSize=12;whiteSpace=wrap;html=1;" parent="vQvhf7Cgw6uRfwSYzuYJ-33" vertex="1">
          <mxGeometry y="176" width="160" height="30" as="geometry" />
        </mxCell>
        <mxCell id="vQvhf7Cgw6uRfwSYzuYJ-53" value="num_ss" style="text;strokeColor=none;fillColor=none;spacingLeft=4;spacingRight=4;overflow=hidden;rotatable=0;points=[[0,0.5],[1,0.5]];portConstraint=eastwest;fontSize=12;whiteSpace=wrap;html=1;" parent="vQvhf7Cgw6uRfwSYzuYJ-33" vertex="1">
          <mxGeometry y="206" width="160" height="30" as="geometry" />
        </mxCell>
        <mxCell id="vQvhf7Cgw6uRfwSYzuYJ-54" value="aÃ±os_antiguedad" style="text;strokeColor=none;fillColor=none;spacingLeft=4;spacingRight=4;overflow=hidden;rotatable=0;points=[[0,0.5],[1,0.5]];portConstraint=eastwest;fontSize=12;whiteSpace=wrap;html=1;" parent="vQvhf7Cgw6uRfwSYzuYJ-33" vertex="1">
          <mxGeometry y="236" width="160" height="30" as="geometry" />
        </mxCell>
        <mxCell id="vQvhf7Cgw6uRfwSYzuYJ-56" value="EnseÃ±a" style="shape=rhombus;perimeter=rhombusPerimeter;whiteSpace=wrap;html=1;align=center;" parent="1" vertex="1">
          <mxGeometry x="-467" y="196" width="120" height="60" as="geometry" />
        </mxCell>
        <mxCell id="vQvhf7Cgw6uRfwSYzuYJ-57" value="Contiene" style="shape=rhombus;perimeter=rhombusPerimeter;whiteSpace=wrap;html=1;align=center;" parent="1" vertex="1">
          <mxGeometry x="-467" y="503" width="120" height="60" as="geometry" />
        </mxCell>
        <mxCell id="vQvhf7Cgw6uRfwSYzuYJ-58" value="Imparte" style="shape=rhombus;perimeter=rhombusPerimeter;whiteSpace=wrap;html=1;align=center;" parent="1" vertex="1">
          <mxGeometry x="-467" y="871" width="120" height="60" as="geometry" />
        </mxCell>
        <mxCell id="vQvhf7Cgw6uRfwSYzuYJ-59" value="Explica" style="shape=rhombus;perimeter=rhombusPerimeter;whiteSpace=wrap;html=1;align=center;" parent="1" vertex="1">
          <mxGeometry x="-257" y="656" width="120" height="60" as="geometry" />
        </mxCell>
        <mxCell id="vQvhf7Cgw6uRfwSYzuYJ-60" value="Es" style="shape=rhombus;perimeter=rhombusPerimeter;whiteSpace=wrap;html=1;align=center;" parent="1" vertex="1">
          <mxGeometry x="-57" y="347" width="120" height="60" as="geometry" />
        </mxCell>
        <mxCell id="vQvhf7Cgw6uRfwSYzuYJ-65" value="" style="endArrow=none;html=1;rounded=0;exitX=0.5;exitY=0;exitDx=0;exitDy=0;entryX=0.5;entryY=1;entryDx=0;entryDy=0;" parent="1" source="vQvhf7Cgw6uRfwSYzuYJ-9" target="vQvhf7Cgw6uRfwSYzuYJ-56" edge="1">
          <mxGeometry relative="1" as="geometry">
            <mxPoint x="-427" y="283" as="sourcePoint" />
            <mxPoint x="-377" y="283" as="targetPoint" />
          </mxGeometry>
        </mxCell>
        <mxCell id="vQvhf7Cgw6uRfwSYzuYJ-66" value="" style="endArrow=none;html=1;rounded=0;exitX=0.5;exitY=0;exitDx=0;exitDy=0;entryX=0.507;entryY=1.041;entryDx=0;entryDy=0;entryPerimeter=0;" parent="1" source="vQvhf7Cgw6uRfwSYzuYJ-56" target="vQvhf7Cgw6uRfwSYzuYJ-15" edge="1">
          <mxGeometry relative="1" as="geometry">
            <mxPoint x="-407" y="213" as="sourcePoint" />
            <mxPoint x="-407" y="173" as="targetPoint" />
          </mxGeometry>
        </mxCell>
        <mxCell id="vQvhf7Cgw6uRfwSYzuYJ-67" value="" style="endArrow=none;html=1;rounded=0;exitX=0.5;exitY=0;exitDx=0;exitDy=0;entryX=0.493;entryY=1.03;entryDx=0;entryDy=0;entryPerimeter=0;" parent="1" target="vQvhf7Cgw6uRfwSYzuYJ-11" edge="1">
          <mxGeometry relative="1" as="geometry">
            <mxPoint x="-407" y="503" as="sourcePoint" />
            <mxPoint x="-407" y="463" as="targetPoint" />
          </mxGeometry>
        </mxCell>
        <mxCell id="vQvhf7Cgw6uRfwSYzuYJ-70" value="" style="endArrow=none;html=1;rounded=0;entryX=0.504;entryY=0.994;entryDx=0;entryDy=0;entryPerimeter=0;" parent="1" target="vQvhf7Cgw6uRfwSYzuYJ-100" edge="1">
          <mxGeometry relative="1" as="geometry">
            <mxPoint x="-407" y="871" as="sourcePoint" />
            <mxPoint x="-407" y="823" as="targetPoint" />
          </mxGeometry>
        </mxCell>
        <mxCell id="vQvhf7Cgw6uRfwSYzuYJ-71" value="" style="endArrow=none;html=1;rounded=0;exitX=0.5;exitY=0;exitDx=0;exitDy=0;entryX=0.5;entryY=1;entryDx=0;entryDy=0;" parent="1" edge="1">
          <mxGeometry relative="1" as="geometry">
            <mxPoint x="-408" y="981" as="sourcePoint" />
            <mxPoint x="-408" y="931" as="targetPoint" />
          </mxGeometry>
        </mxCell>
        <mxCell id="vQvhf7Cgw6uRfwSYzuYJ-72" value="1,n" style="text;html=1;strokeColor=none;fillColor=none;align=center;verticalAlign=middle;whiteSpace=wrap;rounded=0;" parent="1" vertex="1">
          <mxGeometry x="-447" y="283" width="60" height="30" as="geometry" />
        </mxCell>
        <mxCell id="vQvhf7Cgw6uRfwSYzuYJ-73" value="0,n" style="text;html=1;strokeColor=none;fillColor=none;align=center;verticalAlign=middle;whiteSpace=wrap;rounded=0;" parent="1" vertex="1">
          <mxGeometry x="-447" y="139" width="60" height="30" as="geometry" />
        </mxCell>
        <mxCell id="vQvhf7Cgw6uRfwSYzuYJ-74" value="N,M" style="text;html=1;strokeColor=none;fillColor=none;align=center;verticalAlign=middle;whiteSpace=wrap;rounded=0;" parent="1" vertex="1">
          <mxGeometry x="-517" y="211" width="60" height="30" as="geometry" />
        </mxCell>
        <mxCell id="vQvhf7Cgw6uRfwSYzuYJ-75" value="" style="endArrow=none;html=1;rounded=0;exitX=0.5;exitY=0;exitDx=0;exitDy=0;entryX=0.5;entryY=1;entryDx=0;entryDy=0;" parent="1" source="vQvhf7Cgw6uRfwSYzuYJ-1" edge="1">
          <mxGeometry relative="1" as="geometry">
            <mxPoint x="-408" y="603" as="sourcePoint" />
            <mxPoint x="-408" y="563" as="targetPoint" />
          </mxGeometry>
        </mxCell>
        <mxCell id="vQvhf7Cgw6uRfwSYzuYJ-76" value="" style="endArrow=none;html=1;rounded=0;exitX=0.995;exitY=0.56;exitDx=0;exitDy=0;entryX=0;entryY=0.5;entryDx=0;entryDy=0;exitPerimeter=0;" parent="1" source="vQvhf7Cgw6uRfwSYzuYJ-2" target="vQvhf7Cgw6uRfwSYzuYJ-59" edge="1">
          <mxGeometry relative="1" as="geometry">
            <mxPoint x="-397" y="623" as="sourcePoint" />
            <mxPoint x="-398" y="573" as="targetPoint" />
          </mxGeometry>
        </mxCell>
        <mxCell id="vQvhf7Cgw6uRfwSYzuYJ-77" value="" style="endArrow=none;html=1;rounded=0;exitX=1;exitY=0.5;exitDx=0;exitDy=0;entryX=0.003;entryY=0.101;entryDx=0;entryDy=0;entryPerimeter=0;" parent="1" source="vQvhf7Cgw6uRfwSYzuYJ-59" target="vQvhf7Cgw6uRfwSYzuYJ-50" edge="1">
          <mxGeometry relative="1" as="geometry">
            <mxPoint x="-387" y="633" as="sourcePoint" />
            <mxPoint x="-388" y="583" as="targetPoint" />
          </mxGeometry>
        </mxCell>
        <mxCell id="vQvhf7Cgw6uRfwSYzuYJ-78" value="" style="endArrow=none;html=1;rounded=0;exitX=0.5;exitY=0;exitDx=0;exitDy=0;entryX=0.5;entryY=1;entryDx=0;entryDy=0;" parent="1" source="vQvhf7Cgw6uRfwSYzuYJ-33" target="vQvhf7Cgw6uRfwSYzuYJ-60" edge="1">
          <mxGeometry relative="1" as="geometry">
            <mxPoint x="87" y="685" as="sourcePoint" />
            <mxPoint x="58" y="491" as="targetPoint" />
          </mxGeometry>
        </mxCell>
        <mxCell id="vQvhf7Cgw6uRfwSYzuYJ-81" value="1,1" style="text;html=1;strokeColor=none;fillColor=none;align=center;verticalAlign=middle;whiteSpace=wrap;rounded=0;" parent="1" vertex="1">
          <mxGeometry x="60" y="364" width="60" height="30" as="geometry" />
        </mxCell>
        <mxCell id="vQvhf7Cgw6uRfwSYzuYJ-82" value="1:N" style="text;html=1;strokeColor=none;fillColor=none;align=center;verticalAlign=middle;whiteSpace=wrap;rounded=0;" parent="1" vertex="1">
          <mxGeometry x="-225" y="633" width="60" height="30" as="geometry" />
        </mxCell>
        <mxCell id="vQvhf7Cgw6uRfwSYzuYJ-83" value="1,n" style="text;html=1;strokeColor=none;fillColor=none;align=center;verticalAlign=middle;whiteSpace=wrap;rounded=0;" parent="1" vertex="1">
          <mxGeometry x="-457" y="459" width="60" height="30" as="geometry" />
        </mxCell>
        <mxCell id="vQvhf7Cgw6uRfwSYzuYJ-85" value="1,1" style="text;html=1;strokeColor=none;fillColor=none;align=center;verticalAlign=middle;whiteSpace=wrap;rounded=0;" parent="1" vertex="1">
          <mxGeometry x="87" y="625" width="60" height="30" as="geometry" />
        </mxCell>
        <mxCell id="vQvhf7Cgw6uRfwSYzuYJ-86" value="1,n" style="text;html=1;strokeColor=none;fillColor=none;align=center;verticalAlign=middle;whiteSpace=wrap;rounded=0;" parent="1" vertex="1">
          <mxGeometry x="-133" y="653" width="60" height="30" as="geometry" />
        </mxCell>
        <mxCell id="vQvhf7Cgw6uRfwSYzuYJ-87" value="1,1" style="text;html=1;strokeColor=none;fillColor=none;align=center;verticalAlign=middle;whiteSpace=wrap;rounded=0;" parent="1" vertex="1">
          <mxGeometry x="-327" y="653" width="60" height="30" as="geometry" />
        </mxCell>
        <mxCell id="vQvhf7Cgw6uRfwSYzuYJ-88" value="N,M" style="text;html=1;strokeColor=none;fillColor=none;align=center;verticalAlign=middle;whiteSpace=wrap;rounded=0;" parent="1" vertex="1">
          <mxGeometry x="-517" y="518" width="60" height="30" as="geometry" />
        </mxCell>
        <mxCell id="vQvhf7Cgw6uRfwSYzuYJ-89" value="0,1" style="text;html=1;strokeColor=none;fillColor=none;align=center;verticalAlign=middle;whiteSpace=wrap;rounded=0;" parent="1" vertex="1">
          <mxGeometry x="-457" y="833" width="60" height="30" as="geometry" />
        </mxCell>
        <mxCell id="vQvhf7Cgw6uRfwSYzuYJ-90" value="1,1" style="text;html=1;strokeColor=none;fillColor=none;align=center;verticalAlign=middle;whiteSpace=wrap;rounded=0;" parent="1" vertex="1">
          <mxGeometry x="-447" y="951" width="60" height="30" as="geometry" />
        </mxCell>
        <mxCell id="vQvhf7Cgw6uRfwSYzuYJ-91" value="1:1" style="text;html=1;strokeColor=none;fillColor=none;align=center;verticalAlign=middle;whiteSpace=wrap;rounded=0;" parent="1" vertex="1">
          <mxGeometry x="-507" y="886" width="60" height="30" as="geometry" />
        </mxCell>
        <mxCell id="vQvhf7Cgw6uRfwSYzuYJ-92" value="1,n" style="text;html=1;strokeColor=none;fillColor=none;align=center;verticalAlign=middle;whiteSpace=wrap;rounded=0;" parent="1" vertex="1">
          <mxGeometry x="-457" y="583" width="60" height="30" as="geometry" />
        </mxCell>
        <mxCell id="geEOB6ZoBFcMuZqPK4eh-3" value="&lt;div style=&quot;text-align: justify; line-height: 180%; font-size: 15px;&quot;&gt;&lt;span data-darkreader-inline-bgcolor=&quot;&quot; style=&quot;background-color: initial; --darkreader-inline-bgcolor: initial;&quot;&gt;&lt;font style=&quot;font-size: 15px;&quot;&gt;Centro(&lt;b&gt;id_centro&lt;/b&gt;, nombre grado)&lt;/font&gt;&lt;/span&gt;&lt;/div&gt;&lt;font style=&quot;font-size: 15px;&quot;&gt;&lt;div style=&quot;text-align: justify; line-height: 180%;&quot;&gt;&lt;span data-darkreader-inline-bgcolor=&quot;&quot; style=&quot;background-color: initial; --darkreader-inline-bgcolor: initial;&quot;&gt;Ciclo(&lt;b&gt;id_ciclo&lt;/b&gt;, nombre, grado)&lt;/span&gt;&lt;/div&gt;&lt;div style=&quot;text-align: justify; line-height: 180%;&quot;&gt;&lt;span data-darkreader-inline-bgcolor=&quot;&quot; style=&quot;background-color: initial; --darkreader-inline-bgcolor: initial;&quot;&gt;EnseÃ±a(&lt;u&gt;&lt;b&gt;fk_id_centro&lt;/b&gt;&lt;/u&gt;, &lt;u&gt;&lt;b&gt;fk_id_ciclo&lt;/b&gt;&lt;/u&gt;)&lt;/span&gt;&lt;/div&gt;&lt;div style=&quot;text-align: justify; line-height: 180%;&quot;&gt;&lt;span data-darkreader-inline-bgcolor=&quot;&quot; style=&quot;background-color: initial; --darkreader-inline-bgcolor: initial;&quot;&gt;Asignatura(&lt;u&gt;fk_id_aula&lt;/u&gt;,&amp;nbsp;&lt;u&gt;&lt;b&gt;id_asignatura&lt;/b&gt;&lt;/u&gt;, nombre, id_europeo, fecha_inicio, fecha_fin)&lt;/span&gt;&lt;/div&gt;&lt;div style=&quot;text-align: justify; line-height: 180%;&quot;&gt;Contiene(&lt;u data-darkreader-inline-border=&quot;&quot; style=&quot;border-color: var(--border-color); --darkreader-inline-border: var(--darkreader-border--border-color);&quot;&gt;&lt;b&gt;fk_id_ciclo&lt;/b&gt;&lt;/u&gt;,&amp;nbsp;&lt;u data-darkreader-inline-border=&quot;&quot; style=&quot;border-color: var(--border-color); --darkreader-inline-border: var(--darkreader-border--border-color);&quot;&gt;&lt;b&gt;fk_id_asignatura&lt;/b&gt;&lt;/u&gt;)&lt;span data-darkreader-inline-bgcolor=&quot;&quot; style=&quot;background-color: initial; --darkreader-inline-bgcolor: initial;&quot;&gt;&lt;br&gt;&lt;/span&gt;&lt;/div&gt;&lt;div style=&quot;text-align: justify; line-height: 180%;&quot;&gt;&lt;span data-darkreader-inline-bgcolor=&quot;&quot; style=&quot;background-color: initial; --darkreader-inline-bgcolor: initial;&quot;&gt;Aula(&lt;u&gt;&lt;b&gt;id_aula&lt;/b&gt;&lt;/u&gt;, hora, dia_semana, metros)&lt;/span&gt;&lt;/div&gt;&lt;div style=&quot;text-align: justify; line-height: 180%;&quot;&gt;&lt;span data-darkreader-inline-bgcolor=&quot;&quot; style=&quot;background-color: initial; --darkreader-inline-bgcolor: initial;&quot;&gt;Profesor(&lt;u&gt;&lt;b&gt;id_profesor&lt;/b&gt;&lt;/u&gt;, &lt;u&gt;fk_id_ciclo&lt;/u&gt;, nombre, direccion, telefono, mail, dni, num_ss, aÃ±os_antiguedad)&lt;/span&gt;&lt;/div&gt;&lt;div style=&quot;text-align: justify; line-height: 180%;&quot;&gt;&lt;span data-darkreader-inline-bgcolor=&quot;&quot; style=&quot;background-color: initial; --darkreader-inline-bgcolor: initial;&quot;&gt;Tutor(&lt;u style=&quot;&quot;&gt;&lt;b&gt;id_tutor&lt;/b&gt;&lt;/u&gt;, aÃ±os_antiguedad, &lt;u style=&quot;&quot;&gt;fk_id_profesor&lt;/u&gt;)&lt;/span&gt;&lt;/div&gt;&lt;/font&gt;" style="text;html=1;strokeColor=none;fillColor=none;align=center;verticalAlign=middle;whiteSpace=wrap;rounded=0;" parent="1" vertex="1">
          <mxGeometry x="-61" y="53" width="705" height="230" as="geometry" />
        </mxCell>
        <mxCell id="sjhtBztyig1MDfAEQTWk-1" value="" style="endArrow=none;html=1;rounded=0;exitX=0;exitY=0.5;exitDx=0;exitDy=0;entryX=1.03;entryY=0;entryDx=0;entryDy=0;entryPerimeter=0;" parent="1" source="vQvhf7Cgw6uRfwSYzuYJ-60" target="vQvhf7Cgw6uRfwSYzuYJ-10" edge="1">
          <mxGeometry relative="1" as="geometry">
            <mxPoint x="17" y="577" as="sourcePoint" />
            <mxPoint x="-73" y="474" as="targetPoint" />
          </mxGeometry>
        </mxCell>
      </root>
    </mxGraphModel>
  </diagram>
</mxfile>
